<?xml version="1.0" encoding="utf-8"?>
<!-- Generator: Adobe Illustrator 25.0.0, SVG Export Plug-In . SVG Version: 6.00 Build 0)  -->
<svg version="1.1" id="Layer_1" xmlns="http://www.w3.org/2000/svg" xmlns:xlink="http://www.w3.org/1999/xlink" x="0px" y="0px"
	 viewBox="0 0 360 360" style="enable-background:new 0 0 360 360;" xml:space="preserve">
<style type="text/css">
	.st0{fill:url(#SVGID_1_);}
	.st1{enable-background:new    ;}
	.st2{fill:#0A3E7B;}
	.st3{fill:#303030;}
</style>
<g>
	<g>
		
			<linearGradient id="SVGID_1_" gradientUnits="userSpaceOnUse" x1="43.8755" y1="201.8133" x2="316.1245" y2="201.8133" gradientTransform="matrix(1 0 0 -1 0 362)">
			<stop  offset="4.741732e-07" style="stop-color:#000046"/>
			<stop  offset="1" style="stop-color:#1CB5E0"/>
		</linearGradient>
		<path class="st0" d="M210.4,100.7c-2.1,7.3-5.3,13.6-9.8,19.1c-4.2,5.3-9.2,9.8-15.1,13.5c-1.8,1.1-3.7,2.1-5.6,3
			c-3.6,1.7-7.3,2.9-11.2,3.8c-0.8,0.2-1.7,0.4-2.5,0.5c-6.6,1.2-13.2,1.1-19.7-0.3c-0.3-0.1-0.6-0.1-0.9-0.2
			c-1.5-0.3-2.9-0.8-4.4-1.4c-1.5-0.6-2.9-1.3-4.2-2.2c-0.2-0.2-0.6-0.5-1.2-0.8c-0.6-0.3-1-0.7-1.2-1.1c-0.2-0.3-0.1-0.4,0.2-0.4
			c0.3,0,0.6,0.1,0.8,0.1c0.5,0.2,1.1,0.3,1.6,0.4c0.6,0,1.1,0.1,1.6,0.2c0.2,0,0.3,0,0.4,0.1c0,0,0.2,0.1,0.4,0.1h0.5
			c0.3,0.1,0.8,0.1,1.6,0.1c7.7,0.6,15.3-0.5,22.9-3.4c6.2-2.6,11.8-6,16.8-10.1c4.7-4,8.5-8.7,11.5-14.1c3-5.3,5.2-11,6.7-17
			c1.3-6,1.9-12.1,1.6-18.4c-0.3-6.2-1.5-12.3-3.4-18.2c-2.9-8.2-7.2-15.8-12.9-22.7c-0.6-0.8-1.2-1.6-1.9-2.3
			c-0.6-0.7-1.3-1.5-2-2.2c-0.4-0.4-0.8-0.8-1.1-1.2c-0.3-0.4-0.7-0.7-1.1-1l-0.5-0.5l-1.2-1.2c-0.7-0.6-1.5-1.2-2.2-1.9
			c-0.7-0.6-1.5-1.2-2.2-1.9c-0.5-0.3-1-0.6-1.3-0.9s-0.8-0.6-1.2-0.9c-0.2-0.1-0.5-0.3-0.9-0.5c-0.1-0.1-0.2-0.1-0.2-0.1
			c0.1,0.1,0.3,0.2,0.4,0.4c-0.4-0.3-0.5-0.4-0.4-0.4c-0.2-0.1-0.4-0.3-0.6-0.4c-0.5-0.3-1-0.6-1.3-0.9c-0.4-0.3-0.8-0.6-1.3-0.8
			l-0.3-0.3c-0.2-0.1-0.4-0.2-0.5-0.3c-0.1-0.1-0.3-0.2-0.5-0.3s-0.4-0.2-0.6-0.3c-0.2-0.1-0.4-0.2-0.6-0.3
			c-0.1-0.1-0.2-0.1-0.2-0.1c0,0-0.1,0-0.2-0.1c-0.3-0.1-0.7-0.3-1.1-0.5l-0.2-0.1l-0.6-0.3c-0.1,0-0.1,0-0.2,0
			c-0.1,0-0.3-0.1-0.4-0.1c-0.2-0.1-0.4-0.2-0.6-0.3c-0.1-0.1-0.3-0.1-0.4-0.2l0,0c0,0-0.1,0-0.1,0c-0.1,0-0.4-0.1-0.6-0.2
			c-0.3-0.1-0.4-0.2-0.5-0.3c-0.3-0.1-0.6-0.2-0.9-0.2c-0.3,0-0.5-0.1-0.9-0.2c-0.1-0.1-0.2-0.1-0.2-0.1c0,0-0.1,0-0.2-0.2
			c-0.5-0.2-1-0.4-1.6-0.5c-0.5-0.1-1-0.3-1.6-0.5c-0.2,0-0.4,0-0.5-0.1c-0.2,0-0.3-0.1-0.5-0.1c-0.3,0-0.6,0-0.8-0.1
			c-0.1,0-0.2,0-0.2-0.1c0,0-0.1-0.1-0.2-0.1s-0.2,0-0.3-0.2c-0.5-0.2-1-0.3-1.6-0.4c-0.5,0-1-0.1-1.6-0.2c-1-0.2-2.1-0.4-3.1-0.5
			c-1-0.1-2.1-0.3-3.3-0.5h-0.6c-0.1-0.1-0.4-0.1-0.8-0.1c-0.2,0-0.5,0-0.8-0.1c-0.3,0-0.6-0.1-0.8-0.1c-0.5,0-1.1,0-1.6-0.1
			C135,6.1,134.5,6,134,6c-2.2-0.1-4.4-0.1-6.7,0c-8.4,0.3-16.6,2-24.4,5c-7,2.8-13.4,6.5-19.5,11.1c-5.5,4.4-10.3,9.3-14.3,14.9
			c-4,5.6-7.2,11.7-9.5,18.2C57.2,62.3,56,69.5,56,76.9s1.2,14.6,3.6,21.6c1.6,4.8,3.8,9.3,6.7,13.7c2.3,3.6,5,7,8.1,10
			c0.2,0.1,0.3,0.2,0.4,0.3s0.2,0.2,0.4,0.3c0,0.1,0,0.1,0.2,0.1v0.1c0.3,0.2,0.7,0.5,1.1,0.9s0.8,0.8,1.2,1.1
			c0.4,0.3,0.8,0.6,1.2,0.9c1,0.8,1.9,1.5,2.6,2c0.2,0.1,0.4,0.3,0.6,0.5l1.4,0.9c0.1,0.1,0.2,0.2,0.3,0.2s0.2,0.1,0.3,0.2
			c0.2,0.1,0.4,0.2,0.5,0.2c0.1,0,0.3,0.1,0.5,0.2l0.3,0.3c0.3,0,0.6,0.1,0.8,0.3c0.1,0.1,0.3,0.2,0.5,0.2c0,0.1,0.1,0.1,0.3,0.1
			l0.3,0.1c0.2,0.1,0.4,0.2,0.6,0.2c0.2,0,0.4,0.1,0.6,0.2c0.1,0,0.2,0,0.2,0.1c0,0,0.2,0.1,0.4,0.1l1.4,0.5
			c0.2,0.1,0.4,0.2,0.5,0.2c0.1,0,0.2,0,0.3,0.1c0.4,0,0.9,0.1,1.6,0.3c0.5,0.1,1.1,0.2,1.6,0.3c0.6,0.1,1.1,0.2,1.6,0.3
			c0.2,0,0.4,0,0.7,0.1c0.3,0,0.5,0.1,0.9,0.1c0.1,0.1,0.2,0.1,0.3,0.1h0.6v-1.9c0-0.2,0.3-0.2,0.9-0.1c0.6,0.2,1,0.2,1.2,0.2
			c1.7,0.5,3.1,1.1,4.4,1.9c1.7,0.7,3.1,1.5,4.2,2.2c0.2,0.1,0.5,0.3,0.9,0.6c0.4,0.3,0.6,0.6,0.6,0.8v2.6h14.8
			c0.2,0,0.4,0.2,0.7,0.5c0.3,0.4,0.4,0.6,0.5,0.9c0.8,0.9,1.7,2.2,2.5,3.7c0.4,0.5,0.8,1.1,1.1,1.8c0.3,0.7,0.6,1.3,0.9,1.9
			c0.1,0.1,0.3,0.4,0.5,1c0.3,0.6,0.3,0.9,0.1,0.9h-21.2v59.7c0,1.8,0,3.6-0.1,5.4c0,1.8,0,3.7,0.2,5.5c0.1,0.8,0.2,1.6,0.2,2.3
			c0,0.7,0.1,1.5,0.1,2.3c-0.1,0.7-0.2,1.4-0.4,2c-0.1,0.6-0.5,1.2-1,1.7c-0.5,0.4-1,0.7-1.6,0.9c-0.5,0.2-1,0.5-1.6,0.8
			c-1.2,0.9-1.7,2.2-1.4,3.7c0.1,0.1,0.2,0.2,0.2,0.3c0,0.1,0.1,0.2,0.2,0.3l0.1,0.3c0,0,0.1,0,0.1,0.1c0.1,0.1,0.3,0.2,0.4,0.3
			c0.2,0.1,0.3,0.3,0.4,0.4c0.8,0.4,1.5,0.7,2,0.9c0.6,0.3,1.3,0.6,1.9,1c0.7,0.4,1.3,0.7,1.9,1c0.2,0.2,0.4,0.3,0.5,0.4
			c0.2,0,0.3,0.2,0.5,0.4l0.1,0.2c-0.2-0.6-0.3-1-0.3-1.2c0-0.6,0.2-1.2,0.6-1.6c0.4-0.5,0.9-0.7,1.6-0.7c0.6,0,1.2,0.2,1.6,0.7
			c0.5,0.5,0.7,1,0.7,1.6s-0.2,1.1-0.7,1.6c-0.5,0.4-1,0.6-1.6,0.6c-0.6,0-1.2-0.3-1.7-0.8c-0.3,0-0.9-0.2-1.7-0.6
			c-0.7-0.2-1.4-0.5-2-0.8c-0.6-0.3-1.3-0.6-2-0.9c-0.4-0.2-0.8-0.4-1.2-0.7s-0.9-0.5-1.4-0.7c-0.6-0.2-1-0.3-1.1-0.3
			c-1.7-0.5-3.1-1.1-4.4-1.9c-0.7-0.3-1.5-0.6-2.2-0.9c-0.7-0.3-1.4-0.7-2-1.2c-0.8-0.6-1.6-1.3-2.4-2.2c-0.8-0.8-1-1.8-0.7-3
			c0.3-0.8,0.8-1.5,1.5-1.9c0.7-0.4,1.4-0.8,2.1-1.2c1.2-0.6,2-1.7,2.2-3.3c0.2-0.9,0.3-1.9,0.2-2.8c0-0.9-0.1-1.9-0.2-2.8
			c-0.2-1.9-0.3-3.7-0.3-5.6v-59.3H78.9c-0.3,0-0.6-0.2-0.8-0.5c-0.2-0.4-0.4-0.6-0.6-0.9c-0.5-0.5-0.9-1.1-1.2-1.7
			c-0.3-0.6-0.7-1.2-1.1-1.9c-0.8-1.2-1.6-2.5-2.2-3.9c0-0.1-0.1-0.4-0.4-1c-0.3-0.6-0.3-0.9-0.2-0.9h26.5v-2.6
			c-2.1-0.6-4.2-1.3-6.2-2.2c-2.1-0.8-4.1-1.7-6.1-2.5c-2.2-1-4.3-2.1-6.4-3.2c-2.1-1.1-4.2-2.3-6.2-3.7c-6.2-3.9-11.6-8.7-16-14.3
			c-4.7-5.7-8.2-12-10.5-19S43.9,79,43.9,71.7c-0.1-7.5,1-14.8,3.3-21.9c2.3-7.1,5.8-13.6,10.3-19.5c4.2-5.6,9-10.5,14.6-14.7
			c5.5-4.2,11.5-7.6,18-10c7.3-2.9,14.7-4.7,22.3-5.3s15.3-0.2,23,1.2c4.7,0.8,9.2,2,13.7,3.6c4.5,1.6,8.8,3.4,13.1,5.4
			c3.9,1.9,7.8,3.9,11.6,6.2c3.8,2.3,7.3,4.8,10.7,7.5c5.6,4.6,10.5,9.7,14.8,15.4s7.6,11.9,10,18.7c2.4,6.9,3.7,13.9,4,21.1
			C213.4,86.6,212.5,93.7,210.4,100.7z M105.7,236.1c0.1,0.1,0.2,0.2,0.3,0.2c0.1,0,0.2,0.1,0.3,0.2
			C106.1,236.5,105.9,236.3,105.7,236.1z M106.3,236.6c0.1,0,0.2,0,0.2,0.2C106.5,236.7,106.4,236.6,106.3,236.6z M160.5,11.8
			l-0.9-0.5L160.5,11.8z M132.3,151.3h-7.9c-0.2,0-0.4-0.2-0.6-0.5c-0.2-0.4-0.4-0.6-0.6-0.9c-0.5-0.5-1-1.1-1.3-1.7
			c-0.4-0.6-0.7-1.2-1.2-1.9c-0.3-0.6-0.6-1.3-1-1.9c-0.4-0.7-0.7-1.3-1-1.9c0-0.1-0.1-0.4-0.4-1c-0.3-0.6-0.3-0.9-0.2-0.9h7.9
			c0.2,0,0.4,0.2,0.7,0.5c0.3,0.4,0.4,0.6,0.5,0.9c0.8,0.9,1.7,2.2,2.5,3.7c0.4,0.5,0.8,1.1,1.1,1.8c0.3,0.7,0.6,1.3,0.9,1.9
			c0.1,0.1,0.3,0.4,0.5,1C132.5,151,132.5,151.3,132.3,151.3z M168.7,140.2c-0.8,0.2-1.7,0.4-2.5,0.5c-6.6,1.2-13.2,1.1-19.7-0.3
			L168.7,140.2z M179.9,136.4c-3.6,1.7-7.3,2.9-11.2,3.8l0.7-7.9c0-0.2,0.3-0.2,0.9-0.1c0.6,0.2,1,0.2,1.1,0.2
			c1.7,0.5,3.2,1.1,4.5,1.9C177.5,135,178.8,135.7,179.9,136.4z M233,287c-2.2-4.5-5-8.4-8.6-11.7c-2.4-2.2-4.9-4.1-7.6-5.8
			c-2.6-1.7-5.4-3.2-8.2-4.7c-3.5-1.8-7.1-3.3-10.7-4.8s-7.4-2.7-11.2-3.8c-3.1-0.8-6.3-1.6-9.4-2.3c-3.2-0.7-6.4-1.5-9.6-2.3
			c-0.2-0.1-0.4-0.2-0.5-0.2c-0.2,0-0.3,0-0.5-0.1c-0.1,0-0.3,0-0.5-0.1l0,0c-0.4-0.2-0.7-0.3-1-0.3c-0.4,0-0.7-0.1-1-0.2
			c-0.7-0.2-1.4-0.4-2-0.6s-1.2-0.4-1.9-0.6c-0.8-0.2-1.4-0.4-1.7-0.5c-0.1,0-0.1,0-0.1-0.1c-0.3,0-0.7-0.1-1.1-0.3
			c-0.3-0.1-0.6-0.2-0.9-0.3c-0.3-0.1-0.5-0.2-0.7-0.3c-0.4-0.2-0.7-0.3-0.9-0.3l-0.1-0.2c-0.1,0-0.2,0-0.3-0.1
			c-0.1,0-0.2,0-0.2-0.1c0,0-0.1-0.1-0.2-0.1h-0.2c-0.2-0.2-0.4-0.3-0.6-0.3c-0.1-0.1-0.4-0.3-0.8-0.5l-0.2-0.2
			c-0.2-0.2-0.5-0.4-0.8-0.5c-0.3-0.1-0.6-0.3-0.8-0.5c-0.2-0.2-0.4-0.4-0.6-0.5l-0.3-0.3c-0.5-0.4-1-0.8-1.6-1.2
			c-0.5-0.4-1-0.8-1.6-1.3l-0.5-0.5c-0.1,0-0.1,0-0.1-0.1l-0.1-0.1c-0.1-0.1-0.2-0.2-0.2-0.2c0,0-0.1,0-0.2-0.1
			c-0.2-0.2-0.4-0.5-0.7-0.8s-0.5-0.6-0.7-0.8c-0.3-0.4-0.6-0.8-1-1.2c-0.4-0.4-0.6-0.8-0.9-1.3c-1.3-1.7-2.4-3.4-3.1-5.1
			c-0.2-0.4-0.4-0.8-0.5-1.2c-0.1-0.4-0.3-0.8-0.5-1.2c-1.9-5.8-1.9-11.8-0.2-17.9c1.6-5.8,4.6-10.8,9.2-14.9
			c2.5-2.2,5.3-3.9,8.4-5.1c1.1-0.4,2.3-0.8,3.3-1c1.1-0.3,2.2-0.4,3.3-0.5c0.6-0.1,1.2-0.1,1.9-0.1h1.9c0.2,0,0.4,0,0.5,0.1
			c0.1,0,0.3,0.1,0.5,0.1h0.9c0.1,0,0.2,0,0.2,0.1c0,0,0.1,0.1,0.2,0.1c0.4,0,0.7,0,0.9,0.2h0.5c0.3,0.2,0.7,0.5,1.1,0.9
			c0.3,0.1,0.5,0.3,0.6,0.6c0.1,0,0.3,0.1,0.5,0.3c0.9,0.9,1.8,1.9,2.6,3c0.8,1,1.4,2.2,1.9,3.4c0.6,2.3,0.2,4.3-1.2,5.9
			c-0.1,0.1,0.1,0.3,0.6,0.7c0.5,0.4,1.1,0.8,1.9,1.2c0.7,0.4,1.4,0.8,2.1,1.2c0.7,0.4,1.1,0.6,1.2,0.7c0.8,0.3,1.6,0.6,2.3,0.9
			c0.7,0.3,1.4,0.6,2.3,0.8c0.2,0.1,0.5,0.2,1,0.4c0.5,0.1,0.8,0.1,1-0.1c1.1-1.2,1.7-2.6,1.6-3.9c0-1.3-0.4-2.7-1.1-4
			c-0.7-1.3-1.5-2.5-2.6-3.6c-1-1.1-2-2.1-3-2.9c-1.5-1.3-3-2.6-4.8-3.7c-1.7-1.1-3.5-2.1-5.2-3c-2.3-1.1-4.6-2.2-7.1-3
			c-2.4-0.9-5-1.5-7.7-1.9c-5.7-0.8-11-0.1-15.9,2.2c-0.5-1.5-0.8-3-0.8-4.6s0.3-3.1,0.8-4.6c0.6-1.6,1.7-2.8,3.1-3.9
			c1.5-1,2.9-1.9,4.4-2.5c0.4-0.1,0.8-0.2,1.2-0.3c0.4-0.1,0.7-0.2,1-0.3h29.9c0.3,0,0.5,0,0.5-0.2v-18.5h21.2c0.1,0,0-0.3-0.2-0.9
			c-0.3-0.6-0.4-0.9-0.4-1c-0.3-0.6-0.6-1.3-1-1.9s-0.7-1.3-1-1.8c-0.8-1.6-1.7-2.8-2.5-3.7c-0.2-0.2-0.4-0.5-0.6-0.9
			c-0.2-0.4-0.4-0.5-0.6-0.5h-14.8v-2.6c0-0.2-0.2-0.5-0.6-0.8c-0.4-0.3-0.7-0.5-0.9-0.6c-0.1,0-0.1-0.1-0.2-0.1
			c-3.6,1.7-7.3,2.9-11.2,3.8c-0.8,0.2-1.7,0.4-2.5,0.5c-6.6,1.2-13.2,1.1-19.7-0.3l-11.2,0.1h-9.3c0.2,0,0.4,0.2,0.7,0.5
			c0.3,0.4,0.4,0.6,0.5,0.9c0.8,0.9,1.7,2.2,2.5,3.7c0.4,0.5,0.8,1.1,1.1,1.8c0.3,0.7,0.6,1.3,0.9,1.9c0.1,0.1,0.3,0.4,0.5,1
			c0.3,0.6,0.3,0.9,0.1,0.9h37v12.6h-29.3c-0.1,0-0.1,0-0.1,0.2l-0.2-0.2c-1.9,0.5-3.7,1.3-5.5,2.3c-1.8,1-3.3,2.4-4.4,4.1
			c-1,1.8-1.5,3.7-1.3,5.8c0.2,2.1,0.6,4.1,1.3,5.8c0.7,2.2,2.1,4.2,4.2,5.9c0.3,0.3,0.7,0.6,1.1,0.9c0.4,0.3,0.8,0.5,1.2,0.7
			c-3.3,2.5-6,5.6-8.1,9.3c-2.9,5.1-4.3,10.5-4.1,16.3c0.2,6.3,2.2,11.9,5.9,16.8c3,4,6.6,7.5,10.9,10.2c4.3,2.7,8.6,5.2,13.1,7.2
			c2.6,1.1,5.2,2.2,7.9,3.2c2.6,1,5.3,1.9,8,2.7c4.8,1.5,9.6,2.7,14.5,3.7c1.2,0.3,2.5,0.6,3.7,0.9s2.4,0.6,3.5,0.9
			c0.4,0,0.7,0,0.9,0.1c0,0.1,0,0.1,0.2,0.1h0.6c0.6,0.2,1,0.3,1.1,0.3c0.5,0.2,1.1,0.4,1.7,0.5c0.6,0.1,1.2,0.3,1.7,0.5
			c0.8,0.2,1.4,0.4,1.7,0.5c0.2,0.1,0.4,0.2,0.5,0.2c0.1,0,0.3,0,0.5,0.1h0.1c0,0.1,0.1,0.1,0.3,0.1h0.2c0.4,0.2,0.7,0.3,0.9,0.3
			c0.4,0.2,0.9,0.4,1.6,0.6c0.1,0.1,0.2,0.1,0.2,0.1c0,0,0.1,0,0.2,0.2c0.2,0,0.4,0,0.5,0.1c0.1,0,0.2,0,0.3,0.1l0.6,0.3h0.1
			c0.2,0.2,0.5,0.4,0.9,0.6c0.2,0.1,0.3,0.2,0.4,0.2c0,0,0.2,0.1,0.4,0.2c0.3,0.4,0.7,0.7,1.2,0.8l0.5,0.5c0.2,0.2,0.4,0.4,0.6,0.5
			c0.2,0.1,0.4,0.3,0.6,0.5l2.3,1.9l0.5,0.5l1.2,1.2c0.3,0.4,0.6,0.8,0.9,1.1c0.3,0.3,0.6,0.7,0.9,1.1c0.6,0.8,1.2,1.6,1.8,2.4
			c0.6,0.8,1.1,1.6,1.6,2.4c0.9,1.8,1.7,3.5,2.3,5.1c1.5,4.4,1.7,8.9,0.7,13.5c-1,4.7-3.1,8.7-6.5,12c-1.8,1.8-3.8,3.1-6.1,3.9
			c-0.3,0.2-0.6,0.3-0.9,0.4c-0.3,0-0.6,0.1-0.8,0.2c-0.4,0.1-0.5,0.2-0.3,0.4c0.2,0.1,0.4,0.3,0.6,0.5c0.5,0.4,1.1,0.8,1.7,1.2
			c0.6,0.4,1.2,0.7,1.7,1c1.3,0.6,3,1.3,4.8,2c0.2,0.1,0.6,0.3,1.2,0.5c0.3,0.1,0.6,0.2,0.9,0.2h0h0c0.2,0,0.5,0.1,0.8,0.1
			c0,0,0.1,0,0.1,0c0.1,0,0.2-0.1,0.3-0.1c4.1-1.2,7.5-3.5,10-7c2.6-3.6,4.2-7.6,4.8-12C235.9,296.2,235.2,291.5,233,287z
			 M310,200.7c-4.5-11.2-11.4-21.6-20.3-30.5c-8.9-8.9-19.8-16.2-31.8-21.3c-12.1-5.1-25.3-8-38.7-8.4v20.9
			c10.5-0.4,21.1,1,31.2,4.4c10,3.4,19.4,8.6,27.4,15.5c8,6.8,14.6,15.1,19.3,24.4c4.7,9.3,7.3,19.5,7.8,29.9
			c0.5,10.4-1.3,21-5.2,30.9c-3.9,9.9-10,19.2-17.9,27.1c-7.9,7.9-17.5,14.4-28.2,19c-2.2,0.9-4.4,1.8-6.7,2.6
			c-0.3,0.1-0.5,0.2-0.8,0.3c-8.2,2.7-16.8,4.3-25.6,4.7c-0.1,0-0.2,0.1-0.3,0.1c11.6,0.3,23.4-1.5,34.5-5.3
			c11.4-3.9,22-10,31.1-17.7c9-7.8,16.5-17.3,21.7-27.8c5.2-10.5,8.2-22.1,8.7-33.9C316.5,223.9,314.5,211.9,310,200.7z
			 M240.8,275.6c-3-3-5.7-5.8-7.3-9.5c-0.7-1.7-1.3-3.4-1.5-5.2c-0.8-7.6-1.6-15.2-2.4-23.1c1.4,1.5,2.6,2.8,3.9,4.1
			c0.3,0.4,0.7,0.7,1.1,1.1c1,1,2.1,1.1,2.8,0.3c0.8-0.8,0.7-1.8-0.3-2.8c-1.6-1.7-3.1-3.6-4.9-5.1c-2.5-2.2-3.7-4.7-3.7-8
			c0-2.3-0.4-4.6-0.7-7.1c1.5,1.6,2.8,2.9,4.1,4.3c1,1,2,1.2,2.8,0.5c0.8-0.7,0.7-1.9-0.2-2.9c-2.2-2.3-4.4-4.7-6.7-7
			c-0.4-0.4-0.6-0.7-0.7-1.3c-0.4-4.1-0.9-8.1-1.2-12.2c-0.4-5.9,1.4-11.1,5.6-15.1c4.7-4.6,9.6-9.1,14.4-13.7
			c0.5-0.5,0.7-0.5,1.2,0.1c4.8,5.1,9.6,10.1,14.3,15.2c4.1,4.4,5.9,9.6,5.5,15.5c-0.3,4.2-0.8,8.3-1.2,12.4c0,0.5-0.3,0.8-0.7,1.1
			c-2.6,2.5-5.3,5-7.9,7.5c-1.1,1-1.2,2.1-0.3,3c0.8,0.8,1.9,0.7,2.9-0.2c1.7-1.6,3.4-3.2,5.3-5c-0.4,3.9-0.8,7.6-1.2,11.3
			c0,0.4-0.4,0.6-0.6,0.9c-2.4,2.2-4.7,4.5-7.1,6.7c-1.3,1.3-1.6,2.3-0.7,3.2c0.9,1,1.9,0.8,3.3-0.5c1.4-1.3,2.8-2.7,4.3-4
			c0.2,0.4,0.1,0.7,0,1c-0.7,6.5-1.4,13-2,19.6c-0.5,5.5-2.6,10-6.7,13.6c-0.7,0.6-1.4,1.3-2.2,2.1c-0.2-0.5-0.1-0.9-0.1-1.3
			c0-24.6,0.1-49.2,0.1-73.7c0-2.5-0.6-3.1-3.1-3c-4.8,0.2-8.3,3.8-8.4,8.7c-0.1,4.3,0,8.5,0,12.8c0,18.2-0.1,36.5-0.1,54.8
			C240.7,274.6,240.7,274.9,240.8,275.6z M248.9,201.7c-0.1,0.5-0.3,0.9-0.3,1.4c-0.1,28.2-0.1,56.4-0.1,84.7c0,1-0.3,1.4-1.3,1.2
			c-0.9-0.1-2.1,0.2-2.6-0.3c-0.6-0.5-0.2-1.7-0.2-2.6c0-26.2,0.1-52.4,0.1-78.7C244.5,204.3,245.8,202.5,248.9,201.7z M250.7,306
			c-0.6-1.6-1.1-3.2-1.6-4.9c-0.1-0.4-0.3-0.6-0.8-0.6c-1.3,0-2.6-0.1-3.9-0.2c-0.5,0-0.7,0.1-0.9,0.6c-0.5,1.5-1,3.1-1.6,4.6
			c-0.1,0.3-0.2,0.6,0,1c1.3,3,2.6,5.9,4,9.1c0.3-0.1,0.5-0.2,0.8-0.3c1.3-2.8,2.6-5.4,3.8-8.1C250.8,306.8,250.9,306.4,250.7,306z
			 M251,296.9c-0.3,0-0.5,0-0.7,0c-2.6-0.1-5.2-0.3-7.8-0.4c-0.6,0-0.8-0.2-0.8-0.8c0-0.9,0.1-1.8,0-2.6c0-0.7,0.2-0.7,0.8-0.7
			c2.6,0.2,5.2,0.3,7.8,0.4c0.6,0,0.8,0.2,0.8,0.8c0,0.9,0,1.8,0,2.6C251,296.4,251,296.6,251,296.9z"/>
	</g>
	<g class="st1">
		<path class="st2" d="M78.2,333.7v25.9h-6.8v-10.3h-10v10.3h-6.8v-25.9h6.8v9.8h10v-9.8H78.2z"/>
		<path class="st2" d="M88.8,359.6H82v-25.9h6.8V359.6z"/>
		<path class="st2" d="M115.6,359.6h-5.5l-10.8-15.1v15.1h-6.5v-25.9H99l10,14.3v-14.3h6.5V359.6z"/>
		<path class="st2" d="M119.4,333.7h9.8c4,0,7.2,1.2,9.6,3.5c2.3,2.3,3.5,5.5,3.5,9.4c0,4-1.2,7.1-3.5,9.5c-2.3,2.3-5.5,3.5-9.6,3.5
			h-9.8V333.7z M128.9,353.8c2.2,0,3.8-0.6,5-1.9c1.2-1.2,1.7-3,1.7-5.2s-0.6-4-1.8-5.2c-1.2-1.3-2.8-1.9-5-1.9h-2.8v14.2H128.9z"/>
		<path class="st2" d="M151.9,359.6h-6.8v-25.9h6.8V359.6z"/>
	</g>
	<g class="st1">
	</g>
	<g class="st1">
		<path class="st3" d="M166.2,359.6v-25.9h8.3c3.7,0,6.8,1.2,9.1,3.5c2.3,2.3,3.5,5.4,3.5,9.4s-1.2,7.1-3.5,9.5
			c-2.3,2.3-5.4,3.5-9.1,3.5H166.2z M169.6,356.6h4.9c2.9,0,5.2-0.9,6.8-2.7c1.7-1.8,2.5-4.2,2.5-7.3c0-3-0.8-5.4-2.5-7.2
			c-1.7-1.8-3.9-2.7-6.8-2.7h-4.9V356.6z"/>
		<path class="st3" d="M191.8,333.7h16.5v2.9H195v8.2h12v3h-12v8.8h13.2v3h-16.5V333.7z"/>
		<path class="st3" d="M212.1,357.6V354c2.4,2,5.1,3,8.1,3c1.7,0,3.1-0.4,4-1.1c1-0.7,1.5-1.7,1.5-3c0-1.1-0.3-1.9-1-2.5
			c-0.6-0.6-1.7-1.2-3.2-1.8l-3.8-1.5c-1.5-0.6-2.9-1.4-4-2.4c-1.2-1.1-1.8-2.6-1.8-4.6c0-2.2,0.8-3.9,2.5-5.1
			c1.7-1.2,3.6-1.7,5.8-1.7c3,0,5.5,0.7,7.4,2.1v3.5c-2.3-1.8-4.7-2.7-7.4-2.7c-1.5,0-2.7,0.3-3.7,1s-1.4,1.6-1.4,2.9
			c0,1,0.3,1.8,0.9,2.4c0.6,0.6,1.6,1.1,2.9,1.6l4.1,1.6c2,0.8,3.4,1.7,4.3,2.9c0.9,1.1,1.4,2.6,1.4,4.3c0,2.2-0.8,3.9-2.5,5.2
			c-1.7,1.3-3.7,1.9-6.2,1.9c-1.7,0-3.3-0.2-4.7-0.6S213,358.3,212.1,357.6z"/>
		<path class="st3" d="M237.1,333.7v25.9h-3.3v-25.9H237.1z"/>
		<path class="st3" d="M253.9,357.1c2.4,0,4.3-0.7,5.9-2V349h-5.7v-2.8h8.8v10.1c-2.3,2.5-5.3,3.7-9.1,3.7c-3.6,0-6.5-1.2-8.8-3.7
			c-2.2-2.4-3.3-5.6-3.3-9.7c0-4.1,1.2-7.3,3.6-9.7c2.4-2.4,5.4-3.7,8.9-3.7c3,0,5.5,0.8,7.5,2.3v3.5c-2.1-1.9-4.6-2.9-7.5-2.9
			c-2.7,0-4.9,1-6.6,2.9c-1.7,1.9-2.5,4.4-2.5,7.5c0,3.1,0.8,5.6,2.4,7.5C249,356.1,251.2,357.1,253.9,357.1z"/>
		<path class="st3" d="M288.3,333.7v25.9h-2.4l-14.5-20.6v20.6h-3.2v-25.9h3.1l13.8,19.7v-19.7H288.3z"/>
		<path class="st3" d="M293.1,357.6V354c2.4,2,5.1,3,8.1,3c1.7,0,3.1-0.4,4-1.1c1-0.7,1.5-1.7,1.5-3c0-1.1-0.3-1.9-1-2.5
			c-0.6-0.6-1.7-1.2-3.2-1.8l-3.8-1.5c-1.5-0.6-2.9-1.4-4-2.4c-1.2-1.1-1.8-2.6-1.8-4.6c0-2.2,0.8-3.9,2.5-5.1
			c1.7-1.2,3.6-1.7,5.8-1.7c3,0,5.5,0.7,7.4,2.1v3.5c-2.3-1.8-4.7-2.7-7.4-2.7c-1.5,0-2.7,0.3-3.7,1s-1.4,1.6-1.4,2.9
			c0,1,0.3,1.8,0.9,2.4c0.6,0.6,1.6,1.1,2.9,1.6l4.1,1.6c2,0.8,3.4,1.7,4.3,2.9c0.9,1.1,1.4,2.6,1.4,4.3c0,2.2-0.8,3.9-2.5,5.2
			c-1.7,1.3-3.7,1.9-6.2,1.9c-1.7,0-3.3-0.2-4.7-0.6C295.2,358.9,294,358.3,293.1,357.6z"/>
	</g>
</g>
</svg>
